<?xml version="1.0" standalone="no"?>
<!DOCTYPE svg PUBLIC "-//W3C//DTD SVG 20010904//EN"
 "http://www.w3.org/TR/2001/REC-SVG-20010904/DTD/svg10.dtd">
<svg version="1.0" xmlns="http://www.w3.org/2000/svg"
 width="300.000000pt" height="300.000000pt" viewBox="0 0 300.000000 300.000000"
 preserveAspectRatio="xMidYMid meet">
<g transform="translate(0.000000,300.000000) scale(0.100000,-0.100000)"
fill="#000000" stroke="none">
<path d="M1449 2694 c-24 -38 -104 -161 -177 -273 -73 -112 -131 -205 -129
-207 2 -3 64 32 137 77 74 45 140 83 148 86 12 5 13 -7 9 -68 -5 -73 -5 -74
29 -111 19 -21 34 -43 34 -48 0 -24 17 -6 35 38 14 34 20 67 19 120 -1 39 0
72 3 72 2 0 67 -39 145 -86 77 -47 142 -83 145 -80 3 2 -38 69 -89 148 -52 78
-127 195 -168 258 -40 63 -78 121 -85 129 -11 11 -21 2 -56 -55z m122 -114
c134 -211 152 -240 148 -245 -3 -2 -34 14 -70 35 -35 22 -71 40 -80 40 -30 0
-46 -33 -52 -103 -2 -37 -8 -71 -11 -74 -14 -14 -30 20 -34 74 -5 57 -26 102
-48 103 -6 0 -41 -16 -77 -35 -73 -39 -82 -33 -43 24 49 74 153 237 165 259 6
12 18 22 25 22 8 0 42 -45 77 -100z"/>
<path d="M1420 2190 c0 -18 51 -100 62 -100 5 0 8 8 8 18 0 22 -69 103 -70 82z"/>
<path d="M1560 2183 c0 -11 -14 -41 -31 -68 -30 -48 -31 -73 -3 -82 26 -9 69
147 45 161 -7 4 -11 0 -11 -11z"/>
<path d="M774 1953 c-71 -108 -131 -203 -133 -211 -2 -11 4 -10 25 5 36 24
191 113 199 113 3 0 5 -24 5 -54 0 -38 7 -66 22 -92 l21 -36 18 33 c11 21 18
56 19 92 0 31 2 57 4 57 3 0 53 -29 113 -64 100 -59 137 -70 100 -28 -8 9 -68
98 -132 197 -64 99 -120 181 -124 183 -4 1 -65 -86 -137 -195z m211 20 c76
-115 81 -131 28 -104 -40 20 -68 16 -92 -12 -11 -14 -15 -13 -36 11 l-23 27
-48 -18 c-26 -9 -48 -16 -50 -15 -6 7 132 207 143 208 7 0 42 -44 78 -97z"/>
<path d="M1946 1944 c-76 -113 -136 -207 -134 -209 2 -2 53 25 113 61 61 35
113 64 116 64 3 0 4 -22 1 -49 -3 -40 0 -57 21 -91 l25 -43 21 41 c13 26 21
60 21 92 0 27 2 50 4 50 2 0 53 -29 112 -65 59 -36 109 -63 111 -61 3 2 -47
82 -109 178 -63 95 -123 188 -133 206 -11 17 -22 32 -26 32 -3 0 -68 -93 -143
-206z m196 59 c98 -151 101 -159 42 -128 -39 20 -47 19 -73 -9 l-23 -25 -23
27 c-25 28 -22 29 -97 -3 -11 -4 -18 -3 -18 4 0 18 124 201 137 201 6 0 31
-30 55 -67z"/>
<path d="M1426 2083 c10 -44 42 -113 52 -113 5 0 15 6 22 14 9 12 3 25 -30 70
-24 31 -44 56 -46 56 -3 0 -2 -12 2 -27z"/>
<path d="M1770 2080 c-19 -5 -45 -20 -57 -35 -25 -28 -32 -71 -10 -59 6 3 -8
-12 -33 -34 -50 -46 -48 -52 8 -22 20 11 53 27 74 35 28 13 41 28 57 65 12 27
21 51 21 54 0 7 -15 6 -60 -4z"/>
<path d="M1290 2049 c0 -22 11 -43 35 -70 l35 -39 0 45 c0 35 -6 52 -25 70
-32 33 -45 31 -45 -6z"/>
<path d="M1392 2020 c3 -57 9 -73 47 -128 42 -62 43 -63 58 -43 13 20 12 24
-15 59 -36 45 -72 111 -72 132 0 8 -5 22 -11 30 -7 11 -9 -3 -7 -50z"/>
<path d="M1581 2057 c-5 -12 -25 -44 -45 -70 -41 -54 -41 -54 -19 -79 16 -18
18 -17 46 29 19 29 32 67 35 96 5 50 -3 62 -17 24z"/>
<path d="M1270 1943 c-18 -7 -60 -44 -60 -53 0 -11 77 -21 105 -14 14 3 25 12
25 19 0 7 6 15 13 18 6 2 -2 11 -20 20 -34 18 -39 19 -63 10z"/>
<path d="M1548 1865 l-46 -64 23 -31 23 -32 26 45 c26 44 47 148 30 146 -5 0
-30 -29 -56 -64z"/>
<path d="M1390 1868 c0 -19 12 -57 26 -84 15 -27 36 -67 47 -88 l21 -39 23 27
23 28 -37 51 c-20 29 -48 68 -62 87 -39 55 -41 56 -41 18z"/>
<path d="M1370 1747 c0 -69 15 -109 76 -194 43 -60 48 -64 62 -49 15 14 15 19
2 39 -8 12 -42 76 -77 142 l-62 120 -1 -58z"/>
<path d="M1591 1750 c-13 -24 -40 -60 -58 -81 l-34 -38 22 -42 21 -42 34 53
c37 59 47 96 42 154 l-3 39 -24 -43z"/>
<path d="M853 1713 c3 -5 10 -28 17 -53 9 -35 14 -41 21 -28 10 18 -17 88 -33
88 -5 0 -7 -3 -5 -7z"/>
<path d="M928 1650 c-37 -67 -46 -104 -30 -114 4 -3 23 22 41 55 23 41 31 69
29 93 l-3 35 -37 -69z"/>
<path d="M2030 1690 c0 -22 11 -52 30 -80 16 -25 30 -51 30 -57 0 -7 4 -13 9
-13 5 0 11 24 15 53 4 28 12 67 17 85 16 50 5 48 -20 -4 l-23 -45 -20 38 c-30
57 -38 61 -38 23z"/>
<path d="M730 1675 c-5 -14 -10 -32 -10 -39 0 -11 40 -56 51 -56 14 0 5 76
-11 98 l-20 24 -10 -27z"/>
<path d="M1885 1648 c15 -51 31 -72 62 -82 18 -6 39 -20 47 -31 20 -26 21 -6
1 22 -10 14 -11 23 -4 25 16 5 -9 54 -35 66 -11 6 -34 13 -49 17 -26 5 -28 4
-22 -17z"/>
<path d="M2146 1640 c-3 -18 -6 -44 -6 -59 0 -42 -55 -146 -93 -177 -20 -16
-100 -63 -179 -105 -129 -68 -143 -78 -140 -100 5 -49 9 -51 54 -25 24 14 91
45 150 69 177 73 248 131 248 202 0 28 0 28 -29 -12 -16 -21 -47 -54 -69 -72
-43 -34 -272 -151 -294 -151 -25 1 38 43 142 95 174 88 245 167 244 275 0 30
-5 63 -10 74 -10 16 -12 15 -18 -14z"/>
<path d="M826 1629 c-18 -91 12 -168 93 -241 27 -25 99 -71 159 -102 60 -31
120 -69 133 -83 19 -20 -9 -9 -121 48 -152 76 -226 133 -260 199 l-19 35 -1
-43 c0 -36 6 -49 42 -88 46 -49 91 -76 233 -134 51 -20 113 -52 139 -69 43
-30 46 -35 46 -76 0 -34 5 -47 23 -60 l22 -15 7 82 8 83 -32 27 c-17 15 -90
58 -161 95 -203 106 -265 175 -282 316 -7 63 -19 74 -29 26z"/>
<path d="M1207 1624 c-3 -19 -2 -46 3 -58 9 -26 56 -66 75 -66 7 0 24 -9 39
-21 14 -11 26 -17 26 -12 0 17 -20 37 -51 52 -18 9 -35 23 -37 31 -4 11 0 10
16 -3 27 -24 46 -13 37 22 -8 32 -31 58 -67 77 -36 19 -35 19 -41 -22z"/>
<path d="M2246 1626 c-27 -25 -36 -42 -36 -65 0 -19 4 -30 10 -26 16 10 12
-11 -5 -25 -8 -7 -15 -17 -15 -22 0 -16 98 71 105 93 8 23 -3 79 -15 79 -5 0
-25 -15 -44 -34z"/>
<path d="M1704 1632 c-29 -23 -44 -54 -44 -92 0 -17 -5 -40 -11 -51 -6 -11 -8
-25 -6 -32 3 -7 14 8 26 33 11 25 21 37 21 28 0 -23 11 -23 38 2 17 17 22 32
22 75 0 60 -9 67 -46 37z"/>
<path d="M1350 1598 c0 -18 5 -51 11 -73 11 -41 128 -255 139 -255 5 0 13 14
48 81 1 4 -33 55 -77 113 -44 59 -86 120 -93 136 -17 39 -28 38 -28 -2z"/>
<path d="M1599 1577 c-15 -23 -39 -59 -54 -79 l-27 -37 22 -35 c12 -20 25 -36
28 -36 16 0 55 110 59 168 3 34 4 62 2 62 -2 0 -16 -20 -30 -43z"/>
<path d="M2034 1567 c3 -18 -1 -59 -9 -91 -9 -32 -14 -61 -11 -63 7 -7 66 71
66 87 -1 19 -37 100 -46 100 -3 0 -3 -15 0 -33z"/>
<path d="M961 1577 c-6 -8 -18 -31 -26 -51 -16 -37 -15 -39 10 -77 14 -21 28
-39 30 -39 5 0 3 180 -1 180 -1 0 -7 -6 -13 -13z"/>
<path d="M1036 1559 c-20 -16 -26 -29 -26 -60 l0 -40 35 27 c28 21 35 33 35
60 0 39 -7 42 -44 13z"/>
<path d="M686 1504 c-12 -31 -6 -63 17 -88 22 -25 77 -46 77 -29 0 5 -12 14
-27 21 -19 8 -21 10 -5 6 35 -8 30 41 -9 77 -36 33 -44 35 -53 13z"/>
<path d="M1735 1460 c-16 -11 -38 -20 -47 -20 -10 0 -18 -3 -18 -7 1 -11 91
-53 112 -53 20 0 108 41 108 50 0 12 -78 50 -101 50 -13 0 -37 -9 -54 -20z"/>
<path d="M1153 1444 c-33 -16 -50 -45 -38 -64 3 -6 -1 -13 -10 -16 -13 -6 -14
-8 -3 -15 45 -29 98 9 98 71 0 45 -2 46 -47 24z"/>
<path d="M1326 1370 c-41 -90 -43 -120 -12 -149 l25 -24 7 29 c4 16 18 54 31
84 23 53 23 55 6 87 -10 18 -20 33 -24 33 -3 0 -18 -27 -33 -60z"/>
<path d="M1607 1387 c-17 -32 -17 -34 8 -90 14 -32 25 -64 25 -72 0 -22 13
-18 39 9 l23 24 -27 63 c-15 35 -29 72 -32 82 -8 25 -16 21 -36 -16z"/>
<path d="M2263 1400 c-30 -12 -48 -47 -27 -52 12 -2 8 -9 -15 -26 l-31 -23 0
31 c0 16 -4 30 -9 30 -15 0 -23 -33 -21 -88 1 -40 -5 -67 -25 -107 -45 -93
-126 -149 -305 -213 -137 -49 -128 -47 -103 -24 13 11 58 35 100 52 179 74
241 118 283 200 11 22 20 59 20 85 0 42 -1 44 -19 33 -11 -6 -22 -28 -25 -50
-11 -69 -77 -122 -268 -216 -145 -71 -176 -90 -238 -150 l-72 -69 22 -43 22
-42 15 23 c52 79 134 137 243 174 41 14 76 25 79 25 3 0 -32 -21 -79 -46 -97
-52 -154 -96 -206 -159 l-36 -44 14 -56 14 -57 39 63 c55 89 146 174 301 280
190 129 264 219 264 320 0 36 32 59 74 52 21 -3 49 4 84 20 l53 25 -34 26
c-39 30 -82 40 -114 26z"/>
<path d="M652 1352 c-23 -7 -23 -7 12 -41 35 -34 36 -34 77 -21 l41 14 -31 28
c-31 28 -54 32 -99 20z"/>
<path d="M806 1335 c-3 -9 -6 -46 -6 -81 0 -119 59 -194 266 -334 260 -178
363 -340 352 -554 -3 -45 -8 -89 -12 -99 -7 -14 -3 -17 22 -17 27 0 32 5 45
48 26 80 29 135 13 213 -37 175 -148 320 -304 394 -45 22 -79 41 -74 43 4 1
41 -9 81 -22 76 -26 156 -78 191 -124 l20 -27 20 24 c31 36 25 55 -36 110 -52
48 -126 89 -305 169 -83 37 -153 103 -168 157 -6 22 -20 46 -31 53 -19 11 -20
10 -20 -20 1 -77 53 -161 128 -209 25 -16 88 -45 139 -65 52 -20 104 -45 116
-55 17 -14 0 -11 -83 15 -125 39 -177 64 -231 113 -66 60 -92 114 -94 195 -1
68 -16 106 -29 73z"/>
<path d="M1401 1281 c-34 -80 -35 -102 -6 -135 14 -15 27 -27 28 -25 1 2 14
29 28 59 l26 55 -27 48 -27 48 -22 -50z"/>
<path d="M1537 1268 c-14 -25 -22 -47 -17 -53 5 -6 17 -31 27 -57 l18 -47 29
35 28 35 -23 65 c-12 35 -26 64 -30 64 -4 0 -18 -19 -32 -42z"/>
<path d="M2005 1245 c-27 -13 -88 -42 -135 -64 -109 -50 -130 -68 -124 -102
l6 -25 126 63 c122 60 182 106 182 138 0 8 -1 15 -2 14 -2 0 -25 -11 -53 -24z"/>
<path d="M940 1236 c0 -26 70 -77 183 -134 l118 -59 -3 31 c-2 23 -13 37 -46
59 -58 39 -252 118 -252 103z"/>
<path d="M1471 1149 c-12 -24 -21 -49 -21 -56 0 -11 39 -83 45 -83 2 0 13 17
25 37 21 36 21 38 4 82 -24 67 -31 70 -53 20z"/>
<path d="M1672 1178 c-5 -8 -7 -47 -4 -95 l4 -81 25 11 c26 12 26 10 7 140 -6
39 -15 46 -32 25z"/>
<path d="M608 1163 c-26 -6 -22 -14 24 -50 40 -33 90 -44 103 -23 3 6 1 10 -6
10 -7 0 -10 2 -7 5 3 3 21 -2 41 -10 43 -18 47 -18 47 -5 0 6 -7 10 -15 10 -8
0 -29 16 -46 35 -28 31 -38 35 -78 34 -25 -1 -54 -3 -63 -6z"/>
<path d="M2228 1131 c-16 -19 -16 -20 3 -26 21 -7 79 12 79 25 0 10 -26 20
-49 20 -9 0 -24 -9 -33 -19z"/>
<path d="M1354 1105 c-15 -82 -2 -116 74 -193 59 -60 72 -69 82 -57 10 12 4
33 -34 107 -25 51 -61 112 -80 136 l-35 43 -7 -36z"/>
<path d="M1574 1067 c-69 -97 -66 -91 -48 -131 l17 -35 49 41 48 41 0 66 c0
36 -4 71 -8 78 -4 7 -26 -15 -58 -60z"/>
<path d="M790 1040 c-13 -9 -12 -12 4 -25 21 -16 53 -19 81 -9 14 6 14 8 -1
25 -19 21 -60 25 -84 9z"/>
<path d="M2130 1030 c0 -5 -10 -10 -22 -10 -21 0 -21 0 -2 -15 23 -17 48 -19
76 -4 21 11 21 12 3 25 -22 16 -55 18 -55 4z"/>
<path d="M813 904 c-29 -12 -72 -59 -62 -68 2 -2 19 -1 38 1 26 5 36 13 48 40
8 20 13 36 11 38 -2 1 -17 -4 -35 -11z"/>
<path d="M2016 887 c-11 -8 -17 -22 -14 -36 l3 -23 28 25 c15 15 27 31 27 37
0 14 -23 13 -44 -3z"/>
<path d="M2149 893 c-15 -2 -39 -17 -55 -34 l-28 -29 34 0 c47 0 26 -18 -25
-22 -54 -4 -50 -19 8 -34 68 -17 103 -4 154 55 36 42 40 50 25 54 -32 9 -87
14 -113 10z m39 -55 c-5 -15 -48 -24 -48 -10 0 14 12 22 33 22 10 0 17 -5 15
-12z"/>
<path d="M918 823 c-16 -2 -28 -8 -28 -11 0 -4 20 -29 43 -55 37 -39 50 -47
80 -47 20 0 48 5 62 12 l27 12 -39 12 c-34 11 -35 12 -10 13 35 1 34 13 -4 45
-30 26 -59 30 -131 19z"/>
<path d="M1437 790 c-15 -16 -24 -31 -20 -33 13 -8 53 12 60 28 11 31 -12 33
-40 5z"/>
<path d="M1802 783 l-27 -28 30 -6 c29 -6 29 -7 -8 -8 -21 0 -47 -6 -58 -12
-29 -15 -117 -154 -125 -196 -8 -44 10 -155 37 -228 20 -53 22 -55 58 -55 21
0 40 3 44 6 3 3 -5 23 -19 44 -70 106 -71 297 -2 385 19 24 25 26 62 20 67
-13 83 -9 137 31 l51 37 -33 18 c-53 28 -114 25 -147 -8z"/>
<path d="M1120 773 c0 -19 28 -53 44 -53 16 0 0 44 -21 58 -21 13 -23 13 -23
-5z"/>
<path d="M1464 752 l-31 -14 32 -63 c64 -122 80 -273 41 -382 l-15 -43 40 0
40 0 -6 37 -5 38 13 -35 c10 -26 20 -36 40 -38 l26 -3 -19 44 c-11 24 -24 77
-30 118 -26 176 -43 247 -68 299 l-27 56 -31 -14z"/>
<path d="M1113 670 c-24 -10 -43 -23 -43 -27 0 -16 80 -53 113 -53 38 0 100
39 63 40 -15 0 -16 3 -7 14 10 12 7 18 -18 30 -39 21 -57 20 -108 -4z"/>
<path d="M1286 650 c38 -110 24 -258 -31 -342 -33 -50 -32 -58 10 -58 31 0 37
4 58 48 39 77 60 151 54 189 -7 43 -57 149 -85 183 l-22 25 16 -45z"/>
<path d="M1852 604 c21 -22 31 -25 59 -19 l33 7 -23 19 c-13 11 -39 19 -59 19
l-37 0 27 -26z"/>
<path d="M1114 535 c-9 -14 -14 -28 -12 -31 10 -9 57 15 68 36 9 18 8 20 -14
20 -16 0 -32 -9 -42 -25z"/>
<path d="M1358 304 c-24 -49 -25 -54 -8 -54 20 0 44 55 38 89 -2 14 -11 4 -30
-35z"/>
</g>
</svg>
